<?xml version="1.0" encoding="utf-8"?>
<!-- Generator: Adobe Illustrator 24.1.1, SVG Export Plug-In . SVG Version: 6.00 Build 0)  -->
<svg version="1.1" id="Layer_1" xmlns="http://www.w3.org/2000/svg" xmlns:xlink="http://www.w3.org/1999/xlink" x="0px" y="0px"
	 viewBox="0 0 512 512" width="20" height="20" style="enable-background:new 0 0 512 512;" xml:space="preserve">
<g>
	<path d="M376.5,354.7c0,8.4,6.8,15.2,15.1,15.2c8.4,0,15.2-6.8,15.2-15.2c0-8.3-6.8-15.1-15.2-15.1
		C383.3,339.5,376.5,346.3,376.5,354.7z M175.1,445h161.4c6.4,0,11.2-4.7,11.6-11.1V323.5c-0.4-6-5.6-11.1-11.6-10.8H175.1
		c-6.3,0-11.4,5-11.6,11.3v109.9C163.5,440.3,168.7,445,175.1,445L175.1,445z M453.2,369.9c8.6,0,15.6-7,15.6-15.6
		c0-13.8-16.7-20.8-26.6-11C432.4,353.1,439.3,369.9,453.2,369.9L453.2,369.9z M422.5,369.5c-8.6-0.3-15.8,6.6-15.8,15.2
		c0,8.6,7.2,15.5,15.8,15.1C442,399.1,442,370.2,422.5,369.5z M407.3,323.9c0,8.4,6.8,15.1,15.2,15.1c8.4,0,15.2-6.7,15.2-15.1
		c0-8.4-6.8-15.1-15.2-15.1C414.1,308.8,407.3,315.5,407.3,323.9z M54.4,354.3c0,19.4,15.7,35.2,35.2,35.2
		c19.4,0,35.2-15.7,35.2-35.2C124.7,307.4,54.4,307.4,54.4,354.3L54.4,354.3z M453.6,0.3H58.4C26.3,0.2,0.2,26.2,0,58.2v395.2
		c0.4,32.4,26.4,58.4,58.4,58.4h394.8c32.1,0,58.4-25.8,58.8-57.9V58.6C511.6,26.2,485.6,0.3,453.6,0.3z M494.4,453.8
		c-0.1,22.5-18.2,40.6-40.7,40.7H58.4c-22.5-0.1-40.7-18.2-40.7-40.7V273.6h476.7V453.8z M494.4,247.2H17.6V58.6
		c0.1-22.5,18.2-40.7,40.7-40.8h395.2c22.3,0,40.7,18.4,40.7,40.8V247.2z M371.3,66.6H139.5c-6.4,0-11.7,5.6-11.7,12v116.6
		c0,6.4,4.8,12.1,11.7,12.1h231.8c6.5-0.1,11.8-5.5,11.6-12.1V78.2C382.9,71.8,377.7,66.6,371.3,66.6z"/>
</g>
</svg>
