<?xml version="1.0" standalone="no"?>
<!DOCTYPE svg PUBLIC "-//W3C//DTD SVG 20010904//EN"
 "http://www.w3.org/TR/2001/REC-SVG-20010904/DTD/svg10.dtd">
<svg version="1.0" xmlns="http://www.w3.org/2000/svg"
 width="20" height="20" viewBox="0 0 1280.000000 1280.000000"
 preserveAspectRatio="xMidYMid meet">
<metadata>
Created by potrace 1.15, written by Peter Selinger 2001-2017
</metadata>
<g transform="translate(0.000000,1280.000000) scale(0.100000,-0.100000)"
fill="#000000" stroke="none">
<path d="M8110 12099 c-880 -75 -1683 -452 -2316 -1087 -414 -415 -695 -910
-839 -1477 -86 -336 -114 -555 -122 -925 -6 -270 2 -426 33 -681 l17 -136
-1439 -1704 c-791 -937 -1718 -2035 -2060 -2440 -342 -405 -631 -749 -643
-766 l-22 -29 7 -1073 c7 -1001 8 -1074 25 -1094 l17 -22 1034 4 c745 2 1040
6 1057 15 20 9 65 102 241 506 l216 495 175 6 c95 4 350 7 565 8 358 1 394 3
412 19 11 9 228 469 481 1022 254 552 464 1007 467 1010 3 3 246 7 541 10 531
5 535 5 552 26 10 12 97 289 195 615 98 327 185 615 193 640 l15 46 207 -68
c481 -157 822 -213 1316 -213 380 -1 614 27 944 110 775 194 1476 674 2004
1372 584 770 812 1702 676 2762 -127 997 -571 1782 -1326 2349 -185 139 -311
217 -518 321 -419 211 -897 339 -1414 380 -154 11 -550 11 -691 -1z m768 -783
c266 -35 479 -88 701 -176 609 -240 1116 -692 1403 -1251 230 -446 329 -922
315 -1514 -11 -481 -99 -838 -305 -1239 -140 -273 -315 -510 -557 -752 -467
-469 -974 -725 -1615 -816 -143 -20 -639 -17 -802 5 -439 59 -974 199 -1242
326 -122 57 -221 120 -292 184 -29 26 -59 47 -67 47 -43 0 -52 -26 -267 -800
-117 -421 -215 -768 -219 -772 -3 -4 -237 -10 -518 -14 -452 -6 -514 -9 -526
-23 -8 -9 -215 -449 -461 -979 -246 -530 -457 -984 -469 -1008 l-21 -44 -555
0 c-422 0 -562 -3 -580 -13 -19 -9 -69 -116 -240 -508 l-216 -496 -170 -6
c-93 -4 -279 -7 -412 -7 l-243 0 0 613 0 612 268 320 c147 176 740 887 1319
1580 578 693 1378 1652 1778 2130 399 479 744 893 767 922 l40 52 -21 118
c-63 367 -74 840 -26 1179 101 721 436 1311 1005 1769 407 328 904 518 1500
575 142 13 583 5 728 -14z"/>
<path d="M8840 10054 c-285 -31 -506 -133 -694 -320 -132 -131 -223 -273 -276
-431 -116 -347 -59 -730 151 -1014 61 -83 205 -222 288 -278 319 -217 754
-249 1106 -82 288 137 523 421 601 726 68 266 28 594 -100 819 -169 295 -449
500 -765 560 -82 16 -253 27 -311 20z m280 -723 c111 -42 210 -146 256 -266
14 -37 19 -75 19 -145 -1 -86 -4 -102 -34 -167 -41 -88 -132 -181 -215 -219
-274 -125 -590 56 -612 352 -17 213 114 402 316 459 73 20 197 14 270 -14z"/>
</g>
</svg>
