<?xml version="1.0" encoding="utf-8"?>
<!-- Generator: Adobe Illustrator 24.1.1, SVG Export Plug-In . SVG Version: 6.00 Build 0)  -->
<svg version="1.1" id="Layer_1" xmlns="http://www.w3.org/2000/svg" xmlns:xlink="http://www.w3.org/1999/xlink" x="0px" y="0px"
	 viewBox="0 0 512 512" width="20" height="20" style="enable-background:new 0 0 512 512;" xml:space="preserve">
<g>
	<path d="M302.4,512h78.4c72,0,131.2-59.2,131.2-131.2V131.2C512,59.2,452.8,0,380.8,0h-80c-1.6,0-3.2,1.6-3.2,3.2v505.7
		C297.6,510.4,299.2,512,302.4,512z M400,230.4c28.8,0,51.2,24,51.2,51.2c0,28.8-24,51.2-51.2,51.2c-28.8,0-51.2-22.3-51.2-51.2
		C347.2,252.8,371.2,230.4,400,230.4z M243.2,0h-112C59.2,0,0,59.2,0,131.2v249.7C0,452.8,59.2,512,131.2,512h112
		c1.6,0,3.2-1.6,3.2-3.2V3.2C246.4,1.6,244.8,0,243.2,0z M206.4,470.4h-75.2c-49.6,0-89.6-40-89.6-89.6V131.2
		c0-49.6,40-89.6,89.6-89.6h73.7L206.4,470.4z M80,153.6c0,27.2,20.8,48,48,48s48-20.8,48-48c0-27.2-20.8-48-48-48
		S80,126.4,80,153.6z"/>
</g>
</svg>
