<?xml version="1.0" encoding="utf-8"?>
<svg version="1.1" xmlns="http://www.w3.org/2000/svg" xmlns:xlink="http://www.w3.org/1999/xlink" x="0px" y="0px"
	 viewBox="0 0 920.4 532.5" width="20" height="20" style="enable-background:new 0 0 920.4 532.5;" xml:space="preserve">
<path d="M871,49.4c31.7,31.7,48.2,71,49.4,117.9v197.8C919.1,412,902.7,451.3,871,483c-31.7,31.7-71,48.2-117.9,49.4H167.3
	c-46.9-1.3-86.2-17.7-117.9-49.4C17.7,451.3,1.3,412,0,365.1V167.3c1.3-46.9,17.7-86.2,49.4-117.9S120.4,1.3,167.3,0h585.7
	C800,1.3,839.3,17.7,871,49.4z M52.3,186.4c12,11.4,26.6,17.1,43.7,17.1s31.7-5.7,43.7-17.1c12-11.4,18.1-26,18.1-43.7
	s-6-32.3-18.1-43.7S113.1,81.8,96,81.8s-31.7,5.7-43.7,17.1s-18.1,26-18.1,43.7S40.3,175,52.3,186.4z M123.6,169.2
	c-7.6,7.6-16.8,11.4-27.6,11.4s-19.7-3.8-26.6-11.4c-7-7.6-10.5-16.8-10.5-27.6s3.5-19.7,10.5-26.6c7-7,15.8-10.5,26.6-10.5
	s20,3.5,27.6,10.5s11.4,16.2,11.4,27.6C135,152.8,131.2,161.6,123.6,169.2z M182.6,271.9c0-2.5-1.9-3.8-5.7-3.8h-32.3
	c-1.3-1.3-2.5-2.5-3.8-3.8V232c0-2.5-1.3-4.4-3.8-5.7h-26.6c-2.5,1.3-3.8,3.2-3.8,5.7v32.3c-1.3,1.3-2.5,2.5-3.8,3.8H70.4
	c-3.8,0-5.7,1.3-5.7,3.8v26.6c0,3.8,1.9,5.7,5.7,5.7h32.3c1.3,0,2.5,1.3,3.8,3.8v30.4c0,3.8,1.3,5.7,3.8,5.7h26.6
	c2.5,0,3.8-1.9,3.8-5.7v-30.4c1.3-2.5,2.5-3.8,3.8-3.8h32.3c3.8,0,5.7-1.9,5.7-5.7V271.9z M709.3,123.6H211.1v285.2h498.2V123.6z
	 M302.4,57c0,11.4,5.1,17.7,15.2,19h283.3c11.4-1.3,17.1-7.6,17.1-19s-5.7-17.7-17.1-19H317.6C307.4,39.3,302.4,45.6,302.4,57z
	 M477.3,488.7c5.1-5.1,7.6-11.1,7.6-18.1c0-7-2.5-12.7-7.6-17.1s-11.1-6.7-18.1-6.7c-7,0-12.7,2.2-17.1,6.7
	c-4.4,4.4-6.7,10.1-6.7,17.1c0,7,2.2,13,6.7,18.1c4.4,5.1,10.5,7.6,18.1,7.6C466.5,496.3,472.2,493.8,477.3,488.7z M774,285.2
	c0-13.9-6.7-20.9-20-20.9s-20,7-20,20.9s7,21.6,20.9,22.8C767.6,306.8,774,299.2,774,285.2z M869.1,186.4
	c11.4-11.4,17.1-26,17.1-43.7s-5.7-32.3-17.1-43.7s-26-17.1-43.7-17.1c-17.7,0-32.3,5.7-43.7,17.1s-17.1,26-17.1,43.7
	s5.7,32.3,17.1,43.7c11.4,11.4,26,17.1,43.7,17.1C843.1,203.5,857.7,197.8,869.1,186.4z M819.6,244.4c0-13.3-6.7-20-20-20
	s-20,6.7-20,20c0,13.3,7,20.6,20.9,21.9C813.3,265,819.6,257.7,819.6,244.4z M819.6,326.1c0-13.3-6.7-20-20-20s-20,6.7-20,20
	s7,20.6,20.9,21.9C813.3,346.7,819.6,339.4,819.6,326.1z M852.9,115.1c7,7,10.5,15.8,10.5,26.6s-3.5,20-10.5,27.6
	c-7,7.6-16.2,11.4-27.6,11.4s-20.6-3.8-27.6-11.4c-7-7.6-10.5-16.8-10.5-27.6s3.5-19.7,10.5-26.6s16.2-11.1,27.6-12.4
	C836.7,104,845.9,108.1,852.9,115.1z M865.3,285.2c0-13.9-7-20.9-20.9-20.9c-13.9,0-20.9,7-20.9,20.9s7,21.6,20.9,22.8
	C858.3,306.8,865.3,299.2,865.3,285.2z"/>
</svg>
